<?xml version="1.0" encoding="utf-8"?>
<!-- Generator: Adobe Illustrator 21.0.0, SVG Export Plug-In . SVG Version: 6.00 Build 0)  -->
<svg version="1.1" id="Слой_7" xmlns="http://www.w3.org/2000/svg" xmlns:xlink="http://www.w3.org/1999/xlink" x="0px" y="0px"
	 viewBox="0 0 500 500" style="enable-background:new 0 0 500 500;" xml:space="preserve">
<style type="text/css">
	.st0{fill:none;stroke:#999999;stroke-width:20;stroke-miterlimit:10;}
</style>
<g>
	<path class="st0" d="M360,290l11-50h-51v-30c0,0,1-20,23-20c3,0,27,0,27,0v-39c0,0-22-11-55-11c-46,0-55,51-55,51v49h-30v50h30v160
		h60V290H360z"/>
	<path class="st0" d="M409.3,50H90.7C68.2,50,50,68.2,50,90.7v318.7c0,22.5,18.2,40.7,40.7,40.7H259h1V290h-30v-50h30v-49
		c0,0,9-51,55-51c33,0,55,11,55,11v39c0,0-24,0-27,0c-22,0-23,20-23,20v30h51l-11,50h-40v160h89.3c22.5,0,40.7-18.2,40.7-40.7V90.7
		C450,68.2,431.8,50,409.3,50z"/>
</g>
</svg>
