<?xml version="1.0" encoding="utf-8"?>
<!-- Generator: Adobe Illustrator 21.0.0, SVG Export Plug-In . SVG Version: 6.00 Build 0)  -->
<svg version="1.1" id="Слой_9" xmlns="http://www.w3.org/2000/svg" xmlns:xlink="http://www.w3.org/1999/xlink" x="0px" y="0px"
	 viewBox="0 0 500 500" style="enable-background:new 0 0 500 500;" xml:space="preserve">
<style type="text/css">
	.st0{fill:none;stroke:#999999;stroke-width:20;stroke-miterlimit:10;}
</style>
<path class="st0" d="M410.3,450H89.8c-22,0-39.8-17.8-39.8-39.8V89.8C50,67.8,67.8,50,89.8,50h320.5c22,0,39.8,17.8,39.8,39.8v320.5
	C450,432.2,432.2,450,410.3,450z"/>
<path class="st0" d="M355,179h22c0,0,22,0,10,17s-39,54-39,54s-9,12,2,23s33.4,33.7,37,40c4,7,1,13-6,15c-10,2.9-45,2-45,2
	s-16.5-3.4-26-17c-7-10-18-22-25-22c-6.1,0-10.6,11.1-12,22c-1,8-14,7-14,7s-31.9-0.2-41-2c-14.1-2.9-34.7-17.2-45-29
	c-14-16-61-97-61-97s-7-12,13-13s26,0,26,0s14-2,21,15s28,47,31,51s17,5,16-15s3-39-3-43s-15-13,4-17c19-1,37-2,48,5c0,13,3,60,3,60
	s5,25,23,2s26-52,33-55S355,179,355,179z"/>
</svg>
